<svg version="1.2" xmlns="http://www.w3.org/2000/svg" viewBox="0 0 1000 1000" width="1000" height="1000">
	<style>
		.s0 { fill: none;stroke: #ef9ce8;stroke-miterlimit:10;stroke-width: 12.5 } 
		.s1 { fill: #0d0787 } 
		.s2 { fill: #ef9ce8 } 
		.s3 { fill: #b1aaf2 } 
		.s4 { fill: #5145c4 } 
		.s5 { fill: #dd58d1 } 
		.s6 { fill: #8c079b } 
		.s7 { fill: #ffd7f7 } 
		.s8 { fill: #dad0fc } 
	</style>
	<g id="OBJECTS">
		<g id="Object 2">
			<g id="&lt;Group&gt;">
				<path id="&lt;Path&gt;" fill-rule="evenodd" class="s0" d="m422.2 181.25v15.31h-15.31v-15.31z"/>
				<path id="&lt;Path&gt;" fill-rule="evenodd" class="s0" d="m422.2 211.87v15.31h-15.31v-15.31z"/>
				<path id="&lt;Path&gt;" fill-rule="evenodd" class="s0" d="m406.89 196.56v15.31h-15.31v-15.31z"/>
				<path id="&lt;Path&gt;" fill-rule="evenodd" class="s0" d="m437.51 196.56v15.31h-15.31v-15.31z"/>
				<path id="&lt;Path&gt;" fill-rule="evenodd" class="s0" d="m559.99 43.46v15.31h-15.31v-15.31z"/>
				<path id="&lt;Path&gt;" fill-rule="evenodd" class="s0" d="m559.99 74.08v15.31h-15.31v-15.31z"/>
				<path id="&lt;Path&gt;" fill-rule="evenodd" class="s0" d="m544.68 58.77v15.31h-15.31v-15.31z"/>
				<path id="&lt;Path&gt;" fill-rule="evenodd" class="s0" d="m575.3 58.77v15.31h-15.31v-15.31z"/>
				<path id="&lt;Path&gt;" class="s0" d="m927.43 518.07h-15.31v15.31h-15.31v15.31h-15.31v15.31h-15.31v15.31h-15.31v15.31h-15.31v15.31h-15.31v15.31h-15.31v15.31h-15.31v15.31h-15.31v-45.93h-15.31v-61.24h-15.31v-30.62h-15.31v-15.31h-15.31v-15.31h-15.31v-15.31h-30.62v-15.31h-30.62v-15.31h-30.62v-15.31h-15.31v-15.31h-30.62v-15.31h-15.31v-45.93h15.31v-61.24h15.31v-30.62h-15.31v-15.31h-15.31v-15.31h-30.62v15.31h-15.31v-45.93h15.31v-15.31h15.31v-15.31h15.31v-30.62h-15.31v-30.62h-15.31v-30.62h-15.31v-30.62h-15.31v30.62h-15.31v30.62h-15.31v30.62h-15.31v30.62h15.31v15.31h15.31v15.31h15.31v45.93h-15.31v15.31h-15.31v15.31h-15.31v15.31h15.31v61.24h-15.31v45.93h-30.62v15.31h-30.62v15.31h-15.31v15.31h-15.31v15.31h-15.31v-153.1h-15.31v-15.31h-15.31v-15.31h-137.79v15.31h-15.31v15.31h-15.31v244.96h15.31v15.31h15.31v15.31h61.24v15.31h-15.31v107.17h-15.31v30.62h-15.31v30.62h15.31v15.31h30.62v15.31h15.31v15.31h15.31v15.31h15.31v15.31 30.62h-15.31v15.31h-15.31v30.62h-15.31v30.62h15.31v15.31h15.31v15.31h214.34 15.31v15.31h15.31v-15.31h30.62v-15.31h15.31v-15.31h15.31v-15.31h15.31v15.31h45.93v-15.31h45.93v-15.31h30.62v-15.31h15.31v-15.31h15.31v-30.62h15.31v-45.93h15.31v-76.55-15.31h15.31v-15.31h15.31v-15.31h15.31v-15.31h15.31v-15.31h15.31v-15.31h15.31v-15.31h15.31v-15.31h15.31v-15.31h15.31v-15.31h15.31v-15.31h15.31v-15.31h15.31v-15.31-15.31z"/>
			</g>
			<g id="Object 2 3 ">
				<g id="&lt;Group&gt;">
					<path id="&lt;Path&gt;" fill-rule="evenodd" class="s1" d="m146.62 303.73v244.96h-15.31v-244.96z"/>
					<path id="&lt;Path&gt;" fill-rule="evenodd" class="s1" d="m330.34 303.73v244.96h-15.31v-244.96z"/>
					<path id="&lt;Path&gt;" fill-rule="evenodd" class="s1" d="m161.93 288.42v15.31h-15.31v-15.31z"/>
					<path id="&lt;Path&gt;" fill-rule="evenodd" class="s1" d="m315.03 288.42v15.31h-15.31v-15.31z"/>
					<path id="&lt;Path&gt;" fill-rule="evenodd" class="s1" d="m299.72 273.11v15.31h-137.79v-15.31z"/>
					<path id="&lt;Path&gt;" fill-rule="evenodd" class="s1" d="m161.93 548.69v15.31h-15.31v-15.31z"/>
					<path id="&lt;Path&gt;" fill-rule="evenodd" class="s1" d="m315.03 548.69v15.31h-15.31v-15.31z"/>
					<path id="&lt;Path&gt;" fill-rule="evenodd" class="s1" d="m299.72 564v15.31h-137.79v-15.31z"/>
					<path id="&lt;Path&gt;" fill-rule="evenodd" class="s2" d="m299.72 502.76v15.31h-137.79v-15.31z"/>
					<path id="&lt;Path&gt;" fill-rule="evenodd" class="s2" d="m192.55 487.45v15.31h-15.31v-15.31z"/>
					<path id="&lt;Path&gt;" fill-rule="evenodd" class="s2" d="m223.17 472.14v15.31h-30.62v-15.31z"/>
					<path id="&lt;Path&gt;" fill-rule="evenodd" class="s3" d="m284.41 487.45v15.31h-15.31v-15.31z"/>
					<path id="&lt;Path&gt;" fill-rule="evenodd" class="s2" d="m269.1 472.14v15.31h-30.62v-15.31z"/>
					<path id="&lt;Path&gt;" fill-rule="evenodd" class="s2" d="m269.1 364.97v30.62h-15.31v-30.62z"/>
					<path id="&lt;Path&gt;" fill-rule="evenodd" class="s2" d="m207.86 364.97v30.62h-15.31v-30.62z"/>
					<path id="&lt;Path&gt;" fill-rule="evenodd" class="s2" d="m253.79 349.66v15.31h-15.31v-15.31z"/>
					<path id="&lt;Path&gt;" fill-rule="evenodd" class="s2" d="m284.41 410.9v15.31h-15.31v-15.31z"/>
					<path id="&lt;Path&gt;" fill-rule="evenodd" class="s2" d="m269.1 334.35v15.31h-15.31v-15.31z"/>
					<path id="&lt;Path&gt;" fill-rule="evenodd" class="s2" d="m269.1 426.21v15.31h-30.62v-15.31z"/>
					<path id="&lt;Path&gt;" fill-rule="evenodd" class="s2" d="m192.55 410.9v15.31h-15.31v-15.31z"/>
					<path id="&lt;Path&gt;" fill-rule="evenodd" class="s2" d="m223.17 426.21v15.31h-30.62v-15.31z"/>
					<path id="&lt;Path&gt;" fill-rule="evenodd" class="s2" d="m207.86 334.35v15.31h-15.31v-15.31z"/>
					<path id="&lt;Path&gt;" fill-rule="evenodd" class="s2" d="m238.48 334.35v15.31h-15.31v-15.31z"/>
					<path id="&lt;Path&gt;" fill-rule="evenodd" class="s4" d="m177.24 303.73v15.31h-15.31v-15.31z"/>
					<path id="&lt;Path&gt;" fill-rule="evenodd" class="s4" d="m299.72 303.73v15.31h-15.31v-15.31z"/>
					<path id="&lt;Path&gt;" fill-rule="evenodd" class="s4" d="m177.24 533.38v15.31h-15.31v-15.31z"/>
					<path id="&lt;Path&gt;" fill-rule="evenodd" class="s4" d="m299.72 533.38v15.31h-15.31v-15.31z"/>
					<path id="&lt;Path&gt;" fill-rule="evenodd" class="s2" d="m223.17 349.66v15.31h-15.31v-15.31z"/>
					<path id="&lt;Path&gt;" fill-rule="evenodd" class="s2" d="m253.79 395.59v15.31h-45.93v-15.31z"/>
					<path id="&lt;Compound Path&gt;" fill-rule="evenodd" class="s5" d="m315.03 303.73v244.96h-15.31v-15.31h-15.31v15.31h15.31v15.31h-137.79v-15.31h15.31v-15.31h-15.31v15.31h-15.31v-244.96h15.31v15.31h15.31v-15.31h-15.31v-15.31h137.79v15.31h-15.31v15.31h15.31v-15.31zm-15.31 199.03h-15.31v-15.31h-15.31v-15.31h-30.62v-30.62h30.62v-15.31h15.31v-15.31h-15.31v15.31h-30.62v-15.31h15.31v-15.31h15.31v-30.62h-15.31v-15.31h15.31v-15.31h-15.31v15.31h-15.31v-15.31h-15.31v15.31h-15.31v-15.31h-15.31v15.31h15.31v15.31h-15.31v30.62h15.31v15.31h15.31v15.31h-30.62v-15.31h-15.31v15.31h15.31v15.31h30.62v30.62h-30.62v15.31h-15.31v15.31h-15.31v15.31h137.79z"/>
					<path id="&lt;Path&gt;" fill-rule="evenodd" class="s6" d="m269.1 487.45v15.31h-76.55v-15.31z"/>
					<path id="&lt;Path&gt;" class="s6" d="m253.79 364.97v30.62h-45.93v-30.62h15.31v-15.31h15.31v15.31z"/>
					<path id="&lt;Path&gt;" fill-rule="evenodd" class="s2" d="m238.48 410.9v76.55h-15.31v-76.55z"/>
				</g>
				<g id="&lt;Group&gt;">
					<path id="&lt;Path&gt;" fill-rule="evenodd" class="s1" d="m529.37 962.06v15.31h-275.58v-15.31z"/>
					<path id="&lt;Path&gt;" fill-rule="evenodd" class="s1" d="m253.79 946.75v15.31h-15.31v-15.31z"/>
					<path id="&lt;Path&gt;" fill-rule="evenodd" class="s1" d="m559.99 931.44v15.31h-15.31v-15.31z"/>
					<path id="&lt;Path&gt;" fill-rule="evenodd" class="s1" d="m544.68 946.75v15.31h-15.31v-15.31z"/>
					<path id="&lt;Path&gt;" fill-rule="evenodd" class="s1" d="m559.99 885.51v15.31h-15.31v-15.31z"/>
					<path id="&lt;Path&gt;" fill-rule="evenodd" class="s1" d="m575.3 916.13v15.31h-15.31v-15.31z"/>
					<path id="&lt;Path&gt;" fill-rule="evenodd" class="s1" d="m621.23 931.44v15.31h-45.93v-15.31z"/>
					<path id="&lt;Path&gt;" fill-rule="evenodd" class="s1" d="m667.16 916.13v15.31h-45.93v-15.31z"/>
					<path id="&lt;Path&gt;" fill-rule="evenodd" class="s1" d="m697.78 900.82v15.31h-30.62v-15.31z"/>
					<path id="&lt;Path&gt;" fill-rule="evenodd" class="s1" d="m728.4 854.89v30.62h-15.31v-30.62z"/>
					<path id="&lt;Path&gt;" fill-rule="evenodd" class="s1" d="m743.71 808.96v45.93h-15.31v-45.93z"/>
					<path id="&lt;Path&gt;" fill-rule="evenodd" class="s1" d="m759.02 717.1v91.86h-15.31v-91.86z"/>
					<path id="&lt;Path&gt;" fill-rule="evenodd" class="s1" d="m759.02 548.69v61.24h-15.31v-61.24z"/>
					<path id="&lt;Path&gt;" fill-rule="evenodd" class="s1" d="m743.71 518.07v30.62h-15.31v-30.62z"/>
					<path id="&lt;Path&gt;" fill-rule="evenodd" class="s1" d="m728.4 502.76v15.31h-15.31v-15.31z"/>
					<path id="&lt;Path&gt;" fill-rule="evenodd" class="s1" d="m713.09 487.45v15.31h-15.31v-15.31z"/>
					<path id="&lt;Path&gt;" fill-rule="evenodd" class="s1" d="m697.78 472.14v15.31h-30.62v-15.31z"/>
					<path id="&lt;Path&gt;" fill-rule="evenodd" class="s1" d="m667.16 456.83v15.31h-30.62v-15.31z"/>
					<path id="&lt;Path&gt;" fill-rule="evenodd" class="s1" d="m636.54 441.52v15.31h-30.62v-15.31z"/>
					<path id="&lt;Path&gt;" fill-rule="evenodd" class="s1" d="m345.65 456.83v15.31h-30.62v-15.31z"/>
					<path id="&lt;Path&gt;" fill-rule="evenodd" class="s1" d="m315.03 472.14v15.31h-30.62v-15.31z"/>
					<path id="&lt;Path&gt;" fill-rule="evenodd" class="s1" d="m284.41 487.45v15.31h-15.31v-15.31z"/>
					<path id="&lt;Path&gt;" fill-rule="evenodd" class="s1" d="m269.1 502.76v15.31h-15.31v-15.31z"/>
					<path id="&lt;Path&gt;" fill-rule="evenodd" class="s1" d="m253.79 518.07v30.62h-15.31v-30.62z"/>
					<path id="&lt;Path&gt;" fill-rule="evenodd" class="s1" d="m238.48 548.69v45.93h-15.31v-45.93z"/>
					<path id="&lt;Path&gt;" fill-rule="evenodd" class="s1" d="m376.27 441.52v15.31h-30.62v-15.31z"/>
					<path id="&lt;Path&gt;" fill-rule="evenodd" class="s1" d="m605.92 426.21v15.31h-45.93v-15.31z"/>
					<path id="&lt;Path&gt;" fill-rule="evenodd" class="s1" d="m422.2 426.21v15.31h-45.93v-15.31z"/>
					<path id="&lt;Path&gt;" fill-rule="evenodd" class="s1" d="m559.99 410.9v15.31h-137.79v-15.31z"/>
					<path id="&lt;Path&gt;" fill-rule="evenodd" class="s1" d="m774.33 609.93v107.17h-15.31v-107.17z"/>
					<path id="&lt;Path&gt;" fill-rule="evenodd" class="s1" d="m223.17 594.62v107.17h-15.31v-107.17z"/>
					<path id="&lt;Path&gt;" fill-rule="evenodd" class="s1" d="m713.09 885.51v15.31h-15.31v-15.31z"/>
					<path id="&lt;Path&gt;" fill-rule="evenodd" class="s1" d="m253.79 793.65v15.31h-15.31v-15.31z"/>
					<path id="&lt;Path&gt;" fill-rule="evenodd" class="s1" d="m238.48 778.34v15.31h-15.31v-15.31z"/>
					<path id="&lt;Path&gt;" fill-rule="evenodd" class="s1" d="m207.86 701.79v30.62h-15.31v-30.62z"/>
					<path id="&lt;Path&gt;" fill-rule="evenodd" class="s1" d="m223.17 763.03v15.31h-30.62v-15.31z"/>
					<path id="&lt;Path&gt;" fill-rule="evenodd" class="s1" d="m192.55 732.41v30.62h-15.31v-30.62z"/>
					<path id="&lt;Path&gt;" fill-rule="evenodd" class="s1" d="m269.1 870.2v15.31h-15.31v-15.31z"/>
					<path id="&lt;Path&gt;" fill-rule="evenodd" class="s4" d="m330.34 854.89v15.31h-45.93v-15.31z"/>
					<path id="&lt;Path&gt;" fill-rule="evenodd" class="s4" d="m376.27 870.2v15.31h-45.93v-15.31z"/>
					<path id="&lt;Path&gt;" fill-rule="evenodd" class="s4" d="m452.82 885.51v15.31h-76.55v-15.31z"/>
					<path id="&lt;Path&gt;" fill-rule="evenodd" class="s1" d="m483.44 870.2v15.31h-30.62v-15.31z"/>
					<path id="&lt;Path&gt;" fill-rule="evenodd" class="s4" d="m498.75 824.27v45.93h-15.31v-45.93z"/>
					<path id="&lt;Path&gt;" fill-rule="evenodd" class="s4" d="m514.06 763.03v61.24h-15.31v-61.24z"/>
					<path id="&lt;Path&gt;" fill-rule="evenodd" class="s1" d="m269.1 808.96v15.31h-15.31v-15.31z"/>
					<path id="&lt;Path&gt;" fill-rule="evenodd" class="s4" d="m299.72 793.65v15.31h-30.62v-15.31z"/>
					<path id="&lt;Path&gt;" fill-rule="evenodd" class="s1" d="m284.41 824.27v15.31h-15.31v-15.31z"/>
					<path id="&lt;Path&gt;" fill-rule="evenodd" class="s2" d="m299.72 824.27v15.31h-15.31v-15.31z"/>
					<path id="&lt;Path&gt;" fill-rule="evenodd" class="s7" d="m299.72 839.58v15.31h-15.31v-15.31z"/>
					<path id="&lt;Path&gt;" fill-rule="evenodd" class="s7" d="m330.34 839.58v15.31h-15.31v-15.31z"/>
					<path id="&lt;Path&gt;" fill-rule="evenodd" class="s7" d="m360.96 854.89v15.31h-15.31v-15.31z"/>
					<path id="&lt;Path&gt;" fill-rule="evenodd" class="s7" d="m391.58 870.2v15.31h-15.31v-15.31z"/>
					<path id="&lt;Path&gt;" fill-rule="evenodd" class="s7" d="m422.2 870.2v15.31h-15.31v-15.31z"/>
					<path id="&lt;Path&gt;" fill-rule="evenodd" class="s7" d="m452.82 870.2v15.31h-15.31v-15.31z"/>
					<path id="&lt;Path&gt;" fill-rule="evenodd" class="s2" d="m345.65 808.96v15.31h-45.93v-15.31z"/>
					<path id="&lt;Path&gt;" fill-rule="evenodd" class="s7" d="m299.72 808.96v15.31h-15.31v-15.31z"/>
					<path id="&lt;Path&gt;" fill-rule="evenodd" class="s1" d="m284.41 839.58v30.62h-15.31v-30.62z"/>
					<path id="&lt;Path&gt;" fill-rule="evenodd" class="s2" d="m315.03 839.58v15.31h-15.31v-15.31z"/>
					<path id="&lt;Path&gt;" fill-rule="evenodd" class="s2" d="m315.03 824.27v15.31h-15.31v-15.31z"/>
					<path id="&lt;Path&gt;" fill-rule="evenodd" class="s2" d="m376.27 854.89v15.31h-15.31v-15.31z"/>
					<path id="&lt;Path&gt;" fill-rule="evenodd" class="s5" d="m345.65 824.27v15.31h-30.62v-15.31z"/>
					<path id="&lt;Path&gt;" fill-rule="evenodd" class="s2" d="m376.27 839.58v15.31h-30.62v-15.31z"/>
					<path id="&lt;Path&gt;" fill-rule="evenodd" class="s2" d="m345.65 839.58v30.62h-15.31v-30.62z"/>
					<path id="&lt;Path&gt;" fill-rule="evenodd" class="s2" d="m330.34 793.65v15.31h-15.31v-15.31z"/>
					<path id="&lt;Path&gt;" fill-rule="evenodd" class="s2" d="m360.96 808.96v15.31h-15.31v-15.31z"/>
					<path id="&lt;Path&gt;" fill-rule="evenodd" class="s1" d="m391.58 808.96v15.31h-15.31v-15.31z"/>
					<path id="&lt;Path&gt;" fill-rule="evenodd" class="s1" d="m422.2 824.27v15.31h-15.31v-15.31z"/>
					<path id="&lt;Path&gt;" fill-rule="evenodd" class="s2" d="m452.82 824.27v15.31h-15.31v-15.31z"/>
					<path id="&lt;Path&gt;" fill-rule="evenodd" class="s5" d="m452.82 854.89v15.31h-76.55v-15.31z"/>
					<path id="&lt;Path&gt;" fill-rule="evenodd" class="s1" d="m468.13 854.89v15.31h-15.31v-15.31z"/>
					<path id="&lt;Path&gt;" fill-rule="evenodd" class="s1" d="m437.51 870.2v15.31h-15.31v-15.31z"/>
					<path id="&lt;Path&gt;" fill-rule="evenodd" class="s2" d="m406.89 870.2v15.31h-15.31v-15.31z"/>
					<path id="&lt;Path&gt;" fill-rule="evenodd" class="s1" d="m483.44 824.27v15.31h-15.31v-15.31z"/>
					<path id="&lt;Path&gt;" fill-rule="evenodd" class="s5" d="m360.96 824.27v15.31h-15.31v-15.31z"/>
					<path id="&lt;Path&gt;" fill-rule="evenodd" class="s1" d="m391.58 793.65v15.31h-45.93v-15.31z"/>
					<path id="&lt;Path&gt;" fill-rule="evenodd" class="s2" d="m391.58 824.27v15.31h-30.62v-15.31z"/>
					<path id="&lt;Path&gt;" fill-rule="evenodd" class="s4" d="m345.65 778.34v15.31h-45.93v-15.31z"/>
					<path id="&lt;Path&gt;" fill-rule="evenodd" class="s4" d="m483.44 808.96v15.31h-91.86v-15.31z"/>
					<path id="&lt;Path&gt;" fill-rule="evenodd" class="s2" d="m483.44 839.58v15.31h-91.86v-15.31z"/>
					<path id="&lt;Path&gt;" fill-rule="evenodd" class="s4" d="m544.68 900.82v30.62h-15.31v-30.62z"/>
					<path id="&lt;Path&gt;" fill-rule="evenodd" class="s4" d="m559.99 870.2v30.62h-15.31v-30.62z"/>
					<path id="&lt;Path&gt;" fill-rule="evenodd" class="s4" d="m605.92 747.72v30.62h-15.31v-30.62z"/>
					<path id="&lt;Path&gt;" fill-rule="evenodd" class="s4" d="m575.3 824.27v45.93h-15.31v-45.93z"/>
					<path id="&lt;Path&gt;" fill-rule="evenodd" class="s4" d="m590.61 778.34v45.93h-15.31v-45.93z"/>
					<path id="&lt;Path&gt;" fill-rule="evenodd" class="s1" d="m253.79 885.51v30.62h-15.31v-30.62z"/>
					<path id="&lt;Path&gt;" fill-rule="evenodd" class="s1" d="m238.48 916.13v30.62h-15.31v-30.62z"/>
					<path id="&lt;Path&gt;" fill-rule="evenodd" class="s4" d="m253.79 609.93v76.55h-15.31v-76.55z"/>
					<path id="&lt;Path&gt;" fill-rule="evenodd" class="s3" d="m269.1 579.31v30.62h-15.31v-30.62z"/>
					<path id="&lt;Path&gt;" fill-rule="evenodd" class="s4" d="m284.41 564v15.31h-15.31v-15.31z"/>
					<path id="&lt;Path&gt;" fill-rule="evenodd" class="s4" d="m330.34 548.69v15.31h-45.93v-15.31z"/>
					<path id="&lt;Path&gt;" fill-rule="evenodd" class="s3" d="m345.65 564v15.31h-15.31v-15.31z"/>
					<path id="&lt;Path&gt;" fill-rule="evenodd" class="s3" d="m299.72 686.48v15.31h-45.93v-15.31z"/>
					<path id="&lt;Path&gt;" fill-rule="evenodd" class="s3" d="m330.34 701.79v30.62h-15.31v-30.62z"/>
					<path id="&lt;Path&gt;" fill-rule="evenodd" class="s4" d="m376.27 732.41v15.31h-45.93v-15.31z"/>
					<path id="&lt;Path&gt;" fill-rule="evenodd" class="s1" d="m406.89 717.1v15.31h-30.62v-15.31z"/>
					<path id="&lt;Path&gt;" fill-rule="evenodd" class="s3" d="m345.65 671.17v30.62h-15.31v-30.62z"/>
					<path id="&lt;Path&gt;" fill-rule="evenodd" class="s4" d="m360.96 655.86v15.31h-15.31v-15.31z"/>
					<path id="&lt;Path&gt;" fill-rule="evenodd" class="s4" d="m376.27 686.48v15.31h-15.31v-15.31z"/>
					<path id="&lt;Path&gt;" fill-rule="evenodd" class="s1" d="m391.58 671.17v15.31h-15.31v-15.31z"/>
					<path id="&lt;Path&gt;" fill-rule="evenodd" class="s1" d="m391.58 671.17v15.31h-15.31v-15.31z"/>
					<path id="&lt;Path&gt;" fill-rule="evenodd" class="s4" d="m468.13 671.17v15.31h-15.31v-15.31z"/>
					<path id="&lt;Path&gt;" fill-rule="evenodd" class="s4" d="m544.68 671.17v15.31h-15.31v-15.31z"/>
					<path id="&lt;Path&gt;" fill-rule="evenodd" class="s3" d="m559.99 655.86v15.31h-15.31v-15.31z"/>
					<path id="&lt;Path&gt;" fill-rule="evenodd" class="s3" d="m452.82 655.86v15.31h-15.31v-15.31z"/>
					<path id="&lt;Path&gt;" fill-rule="evenodd" class="s3" d="m437.51 564v15.31h-15.31v-15.31z"/>
					<path id="&lt;Path&gt;" fill-rule="evenodd" class="s4" d="m468.13 548.69v15.31h-30.62v-15.31z"/>
					<path id="&lt;Path&gt;" fill-rule="evenodd" class="s3" d="m559.99 548.69v15.31h-30.62v-15.31z"/>
					<path id="&lt;Path&gt;" fill-rule="evenodd" class="s3" d="m529.37 533.38v15.31h-61.24v-15.31z"/>
					<path id="&lt;Path&gt;" fill-rule="evenodd" class="s4" d="m437.51 609.93v45.93h-15.31v-45.93z"/>
					<path id="&lt;Path&gt;" fill-rule="evenodd" class="s3" d="m422.2 579.31v30.62h-15.31v-30.62z"/>
					<path id="&lt;Path&gt;" fill-rule="evenodd" class="s4" d="m575.3 564v91.86h-15.31v-91.86z"/>
					<path id="&lt;Path&gt;" fill-rule="evenodd" class="s4" d="m422.2 671.17v45.93h-15.31v-45.93z"/>
					<path id="&lt;Path&gt;" fill-rule="evenodd" class="s4" d="m406.89 640.55v30.62h-15.31v-30.62z"/>
					<path id="&lt;Path&gt;" fill-rule="evenodd" class="s1" d="m360.96 701.79v30.62h-15.31v-30.62z"/>
					<path id="&lt;Path&gt;" fill-rule="evenodd" class="s4" d="m376.27 640.55v15.31h-15.31v-15.31z"/>
					<path id="&lt;Path&gt;" fill-rule="evenodd" class="s4" d="m391.58 625.24v15.31h-15.31v-15.31z"/>
					<path id="&lt;Path&gt;" fill-rule="evenodd" class="s3" d="m315.03 671.17v15.31h-15.31v-15.31z"/>
					<path id="&lt;Path&gt;" fill-rule="evenodd" class="s3" d="m330.34 640.55v30.62h-15.31v-30.62z"/>
					<path id="&lt;Path&gt;" fill-rule="evenodd" class="s3" d="m345.65 609.93v30.62h-15.31v-30.62z"/>
					<path id="&lt;Path&gt;" fill-rule="evenodd" class="s4" d="m360.96 579.31v30.62h-15.31v-30.62z"/>
					<path id="&lt;Path&gt;" fill-rule="evenodd" class="s3" d="m529.37 686.48v15.31h-61.24v-15.31z"/>
					<path id="&lt;Path&gt;" fill-rule="evenodd" class="s4" d="m514.06 747.72v15.31h-45.93v-15.31z"/>
					<path id="&lt;Path&gt;" fill-rule="evenodd" class="s4" d="m621.23 747.72v15.31h-45.93v-15.31z"/>
					<path id="&lt;Path&gt;" fill-rule="evenodd" class="s4" d="m621.23 671.17v30.62h-15.31v-30.62z"/>
					<path id="&lt;Path&gt;" fill-rule="evenodd" class="s4" d="m621.23 548.69v30.62h-15.31v-30.62z"/>
					<path id="&lt;Path&gt;" fill-rule="evenodd" class="s4" d="m636.54 533.38v15.31h-15.31v-15.31z"/>
					<path id="&lt;Path&gt;" fill-rule="evenodd" class="s4" d="m636.54 579.31v91.86h-15.31v-91.86z"/>
					<path id="&lt;Path&gt;" fill-rule="evenodd" class="s4" d="m651.85 763.03v15.31h-30.62v-15.31z"/>
					<path id="&lt;Path&gt;" fill-rule="evenodd" class="s4" d="m636.54 701.79v15.31h-15.31v-15.31z"/>
					<path id="&lt;Path&gt;" fill-rule="evenodd" class="s4" d="m667.16 717.1v15.31h-30.62v-15.31z"/>
					<path id="&lt;Path&gt;" fill-rule="evenodd" class="s4" d="m697.78 778.34v15.31h-45.93v-15.31z"/>
					<path id="&lt;Path&gt;" fill-rule="evenodd" class="s4" d="m713.09 732.41v15.31h-45.93v-15.31z"/>
					<path id="&lt;Compound Path&gt;" fill-rule="evenodd" class="s8" d="m759.02 609.93v107.17h-15.31v91.86h-15.31v45.93h-15.31v30.62h-15.31v15.31h-30.62v15.31h-45.93v15.31h-45.93v-15.31h-15.31v15.31h-15.31v-30.62h15.31v-30.62h15.31v-45.93h15.31v-45.93h15.31v-15.31h15.31v15.31h30.62v15.31h45.93v-15.31h-45.93v-15.31h-30.62v-15.31h-45.93v-15.31h-61.24v15.31h-45.93v15.31h30.62v61.24h-15.31v-15.31h-91.86v-15.31h-45.93v-15.31h-45.93v15.31h-30.62v15.31h-15.31v-15.31h-15.31v-15.31h-15.31v-15.31h-30.62v-30.62h15.31v-30.62h15.31v-107.17h15.31v-45.93h15.31v-30.62h15.31v-15.31h15.31v-15.31h30.62v-15.31h30.62v-15.31h30.62v-15.31h45.93v-15.31h137.79v15.31h45.93v15.31h30.62v15.31h30.62v15.31h30.62v15.31h15.31v15.31h15.31v30.62h15.31v61.24zm-336.82 61.24h-15.31v-30.62h-15.31v-15.31h-15.31v15.31h-15.31v15.31h-15.31v15.31h-15.31v-30.62h15.31v-30.62h15.31v-30.62h-15.31v-15.31h-15.31v-15.31h-45.93v15.31h-15.31v15.31h-15.31v30.62h-15.31v76.55h15.31v15.31h45.93v-15.31h15.31v-15.31h15.31v30.62h-15.31v30.62h15.31v15.31h45.93v-15.31h30.62v-15.31h15.31zm153.1-107.17h-15.31v-15.31h-30.62v-15.31h-61.24v15.31h-30.62v15.31h-15.31v15.31h-15.31v30.62h15.31v45.93h15.31v15.31h15.31v15.31h15.31v15.31h61.24v-15.31h15.31v-15.31h15.31v-15.31h15.31zm137.79 168.41h-45.93v-15.31h-30.62v-15.31h-15.31v-30.62h15.31v-91.86h-15.31v-30.62h15.31v-15.31h-15.31v15.31h-15.31v30.62h15.31v91.86h-15.31v30.62h15.31v15.31h15.31v15.31h30.62v15.31h45.93z"/>
					<path id="&lt;Path&gt;" class="s4" d="m406.89 671.17v45.93h-30.62v15.31h-15.31v-30.62h15.31v-15.31h15.31v-15.31z"/>
					<path id="&lt;Path&gt;" fill-rule="evenodd" class="s3" d="m345.65 701.79v30.62h-15.31v-30.62z"/>
					<path id="&lt;Path&gt;" class="s3" d="m345.65 579.31v30.62h-15.31v30.62h-15.31v30.62h-15.31v15.31h-45.93v-76.55h15.31v-30.62h15.31v-15.31h45.93v15.31z"/>
					<path id="&lt;Path&gt;" class="s3" d="m391.58 640.55v30.62h-15.31v15.31h-15.31v15.31h-15.31v-30.62h15.31v-15.31h15.31v-15.31z"/>
					<path id="&lt;Path&gt;" class="s3" d="m559.99 564v91.86h-15.31v15.31h-15.31v15.31h-61.24v-15.31h-15.31v-15.31h-15.31v-45.93h-15.31v-30.62h15.31v-15.31h30.62v-15.31h61.24v15.31z"/>
					<path id="&lt;Path&gt;" class="s8" d="m590.61 763.03v15.31h-15.31v45.93h-15.31v45.93h-15.31v30.62h-15.31v30.62h15.31v15.31h-15.31v15.31h-275.58v-15.31h-15.31v-30.62h15.31v-30.62h15.31v-15.31h61.24v15.31h45.93v15.31h76.55v-15.31h30.62v-15.31h15.31v-45.93h15.31v-76.55h61.24v15.31z"/>
					<path id="&lt;Path&gt;" fill-rule="evenodd" class="s4" d="m575.3 732.41v15.31h-61.24v-15.31z"/>
					<path id="&lt;Path&gt;" fill-rule="evenodd" class="s4" d="m529.37 671.17v15.31h-61.24v-15.31z"/>
					<path id="&lt;Path&gt;" fill-rule="evenodd" class="s4" d="m544.68 655.86v15.31h-30.62v-15.31z"/>
					<path id="&lt;Path&gt;" fill-rule="evenodd" class="s4" d="m498.75 655.86v15.31h-30.62v-15.31z"/>
					<path id="&lt;Path&gt;" fill-rule="evenodd" class="s4" d="m514.06 640.55v15.31h-15.31v-15.31z"/>
					<path id="&lt;Path&gt;" fill-rule="evenodd" class="s4" d="m452.82 625.24v15.31h-15.31v-15.31z"/>
					<path id="&lt;Path&gt;" fill-rule="evenodd" class="s4" d="m544.68 640.55v15.31h-15.31v-15.31z"/>
					<path id="&lt;Path&gt;" fill-rule="evenodd" class="s4" d="m559.99 625.24v15.31h-15.31v-15.31z"/>
					<path id="&lt;Path&gt;" fill-rule="evenodd" class="s4" d="m529.37 625.24v15.31h-15.31v-15.31z"/>
					<path id="&lt;Path&gt;" fill-rule="evenodd" class="s4" d="m498.75 609.93v15.31h-15.31v-15.31z"/>
					<path id="&lt;Path&gt;" fill-rule="evenodd" class="s4" d="m544.68 609.93v15.31h-15.31v-15.31z"/>
					<path id="&lt;Path&gt;" fill-rule="evenodd" class="s4" d="m544.68 579.31v15.31h-15.31v-15.31z"/>
					<path id="&lt;Path&gt;" fill-rule="evenodd" class="s4" d="m559.99 564v45.93h-15.31v-45.93z"/>
					<path id="&lt;Path&gt;" fill-rule="evenodd" class="s4" d="m498.75 640.55v15.31h-15.31v-15.31z"/>
					<path id="&lt;Path&gt;" fill-rule="evenodd" class="s4" d="m468.13 640.55v15.31h-15.31v-15.31z"/>
					<path id="&lt;Path&gt;" fill-rule="evenodd" class="s4" d="m468.13 655.86v15.31h-15.31v-15.31z"/>
					<path id="&lt;Path&gt;" fill-rule="evenodd" class="s4" d="m299.72 671.17v15.31h-30.62v-15.31z"/>
					<path id="&lt;Path&gt;" fill-rule="evenodd" class="s4" d="m315.03 655.86v15.31h-30.62v-15.31z"/>
					<path id="&lt;Path&gt;" fill-rule="evenodd" class="s4" d="m315.03 640.55v15.31h-15.31v-15.31z"/>
					<path id="&lt;Path&gt;" fill-rule="evenodd" class="s4" d="m330.34 609.93v30.62h-15.31v-30.62z"/>
					<path id="&lt;Path&gt;" fill-rule="evenodd" class="s4" d="m345.65 579.31v30.62h-15.31v-30.62z"/>
					<path id="&lt;Path&gt;" fill-rule="evenodd" class="s4" d="m315.03 609.93v15.31h-15.31v-15.31z"/>
					<path id="&lt;Path&gt;" fill-rule="evenodd" class="s4" d="m299.72 625.24v15.31h-15.31v-15.31z"/>
					<path id="&lt;Path&gt;" fill-rule="evenodd" class="s4" d="m284.41 640.55v15.31h-15.31v-15.31z"/>
					<path id="&lt;Path&gt;" fill-rule="evenodd" class="s4" d="m269.1 655.86v15.31h-15.31v-15.31z"/>
					<path id="&lt;Path&gt;" fill-rule="evenodd" class="s4" d="m284.41 609.93v15.31h-15.31v-15.31z"/>
					<path id="&lt;Path&gt;" fill-rule="evenodd" class="s2" d="m284.41 808.96v15.31h-15.31v-15.31z"/>
					<path id="&lt;Path&gt;" fill-rule="evenodd" class="s7" d="m315.03 793.65v15.31h-15.31v-15.31z"/>
					<path id="&lt;Path&gt;" fill-rule="evenodd" class="s7" d="m345.65 793.65v15.31h-15.31v-15.31z"/>
					<path id="&lt;Path&gt;" fill-rule="evenodd" class="s7" d="m376.27 808.96v15.31h-15.31v-15.31z"/>
					<path id="&lt;Path&gt;" fill-rule="evenodd" class="s7" d="m391.58 839.58v15.31h-15.31v-15.31z"/>
					<path id="&lt;Path&gt;" fill-rule="evenodd" class="s7" d="m406.89 824.27v15.31h-15.31v-15.31z"/>
					<path id="&lt;Path&gt;" fill-rule="evenodd" class="s7" d="m437.51 824.27v15.31h-15.31v-15.31z"/>
					<path id="&lt;Path&gt;" fill-rule="evenodd" class="s7" d="m468.13 824.27v15.31h-15.31v-15.31z"/>
					<path id="&lt;Path&gt;" fill-rule="evenodd" class="s7" d="m483.44 854.89v15.31h-15.31v-15.31z"/>
					<path id="&lt;Path&gt;" fill-rule="evenodd" class="s3" d="m529.37 946.75v15.31h-260.27v-15.31z"/>
					<path id="&lt;Path&gt;" fill-rule="evenodd" class="s3" d="m544.68 931.44v15.31h-61.24v-15.31z"/>
					<path id="&lt;Path&gt;" fill-rule="evenodd" class="s3" d="m452.82 931.44v15.31h-45.93v-15.31z"/>
					<path id="&lt;Path&gt;" fill-rule="evenodd" class="s3" d="m391.58 931.44v15.31h-15.31v-15.31z"/>
					<path id="&lt;Path&gt;" fill-rule="evenodd" class="s3" d="m360.96 931.44v15.31h-15.31v-15.31z"/>
					<path id="&lt;Path&gt;" fill-rule="evenodd" class="s3" d="m330.34 931.44v15.31h-15.31v-15.31z"/>
					<path id="&lt;Path&gt;" fill-rule="evenodd" class="s3" d="m345.65 916.13v15.31h-15.31v-15.31z"/>
					<path id="&lt;Path&gt;" fill-rule="evenodd" class="s3" d="m376.27 916.13v15.31h-15.31v-15.31z"/>
					<path id="&lt;Path&gt;" fill-rule="evenodd" class="s3" d="m406.89 916.13v15.31h-15.31v-15.31z"/>
					<path id="&lt;Path&gt;" fill-rule="evenodd" class="s3" d="m437.51 916.13v15.31h-15.31v-15.31z"/>
					<path id="&lt;Path&gt;" fill-rule="evenodd" class="s3" d="m468.13 916.13v15.31h-15.31v-15.31z"/>
					<path id="&lt;Path&gt;" fill-rule="evenodd" class="s3" d="m483.44 931.44v15.31h-15.31v-15.31z"/>
					<path id="&lt;Path&gt;" fill-rule="evenodd" class="s3" d="m498.75 916.13v15.31h-15.31v-15.31z"/>
					<path id="&lt;Path&gt;" fill-rule="evenodd" class="s3" d="m529.37 916.13v15.31h-15.31v-15.31z"/>
					<path id="&lt;Path&gt;" fill-rule="evenodd" class="s3" d="m514.06 900.82v15.31h-15.31v-15.31z"/>
					<path id="&lt;Path&gt;" fill-rule="evenodd" class="s3" d="m483.44 900.82v15.31h-15.31v-15.31z"/>
					<path id="&lt;Path&gt;" fill-rule="evenodd" class="s3" d="m498.75 885.51v15.31h-15.31v-15.31z"/>
					<path id="&lt;Path&gt;" fill-rule="evenodd" class="s3" d="m529.37 885.51v15.31h-15.31v-15.31z"/>
					<path id="&lt;Path&gt;" fill-rule="evenodd" class="s3" d="m544.68 747.72v15.31h-15.31v-15.31z"/>
					<path id="&lt;Path&gt;" fill-rule="evenodd" class="s3" d="m575.3 747.72v15.31h-15.31v-15.31z"/>
					<path id="&lt;Path&gt;" fill-rule="evenodd" class="s3" d="m529.37 747.72v15.31h-15.31v-15.31z"/>
					<path id="&lt;Path&gt;" fill-rule="evenodd" class="s3" d="m529.37 763.03v15.31h-15.31v-15.31z"/>
					<path id="&lt;Path&gt;" fill-rule="evenodd" class="s3" d="m559.99 747.72v15.31h-15.31v-15.31z"/>
					<path id="&lt;Path&gt;" fill-rule="evenodd" class="s3" d="m544.68 778.34v15.31h-15.31v-15.31z"/>
					<path id="&lt;Path&gt;" fill-rule="evenodd" class="s3" d="m299.72 763.03v15.31h-15.31v-15.31z"/>
					<path id="&lt;Path&gt;" fill-rule="evenodd" class="s3" d="m406.89 533.38v15.31h-15.31v-15.31z"/>
					<path id="&lt;Path&gt;" fill-rule="evenodd" class="s3" d="m391.58 548.69v15.31h-15.31v-15.31z"/>
					<path id="&lt;Path&gt;" fill-rule="evenodd" class="s3" d="m391.58 533.38v15.31h-15.31v-15.31z"/>
					<path id="&lt;Path&gt;" fill-rule="evenodd" class="s3" d="m376.27 518.07v15.31h-15.31v-15.31z"/>
					<path id="&lt;Path&gt;" fill-rule="evenodd" class="s3" d="m406.89 502.76v15.31h-15.31v-15.31z"/>
					<path id="&lt;Path&gt;" fill-rule="evenodd" class="s3" d="m269.1 778.34v15.31h-15.31v-15.31z"/>
					<path id="&lt;Path&gt;" fill-rule="evenodd" class="s3" d="m269.1 793.65v15.31h-15.31v-15.31z"/>
					<path id="&lt;Path&gt;" fill-rule="evenodd" class="s3" d="m253.79 778.34v15.31h-15.31v-15.31z"/>
					<path id="&lt;Path&gt;" fill-rule="evenodd" class="s3" d="m269.1 763.03v15.31h-15.31v-15.31z"/>
					<path id="&lt;Path&gt;" fill-rule="evenodd" class="s3" d="m238.48 763.03v15.31h-15.31v-15.31z"/>
					<path id="&lt;Path&gt;" fill-rule="evenodd" class="s3" d="m253.79 747.72v15.31h-15.31v-15.31z"/>
					<path id="&lt;Path&gt;" fill-rule="evenodd" class="s3" d="m269.1 732.41v15.31h-15.31v-15.31z"/>
					<path id="&lt;Path&gt;" fill-rule="evenodd" class="s3" d="m223.17 747.72v15.31h-15.31v-15.31z"/>
					<path id="&lt;Path&gt;" fill-rule="evenodd" class="s3" d="m376.27 778.34v15.31h-15.31v-15.31z"/>
					<path id="&lt;Path&gt;" fill-rule="evenodd" class="s3" d="m406.89 778.34v15.31h-15.31v-15.31z"/>
					<path id="&lt;Path&gt;" fill-rule="evenodd" class="s3" d="m406.89 793.65v15.31h-15.31v-15.31z"/>
					<path id="&lt;Path&gt;" fill-rule="evenodd" class="s3" d="m437.51 793.65v15.31h-15.31v-15.31z"/>
					<path id="&lt;Path&gt;" fill-rule="evenodd" class="s3" d="m468.13 793.65v15.31h-15.31v-15.31z"/>
					<path id="&lt;Path&gt;" fill-rule="evenodd" class="s3" d="m452.82 778.34v15.31h-15.31v-15.31z"/>
					<path id="&lt;Path&gt;" fill-rule="evenodd" class="s3" d="m498.75 793.65v15.31h-15.31v-15.31z"/>
					<path id="&lt;Path&gt;" fill-rule="evenodd" class="s3" d="m498.75 808.96v15.31h-15.31v-15.31z"/>
					<path id="&lt;Path&gt;" fill-rule="evenodd" class="s3" d="m483.44 778.34v15.31h-15.31v-15.31z"/>
					<path id="&lt;Path&gt;" fill-rule="evenodd" class="s3" d="m207.86 732.41v15.31h-15.31v-15.31z"/>
					<path id="&lt;Path&gt;" fill-rule="evenodd" class="s3" d="m299.72 747.72v15.31h-15.31v-15.31z"/>
					<path id="&lt;Path&gt;" fill-rule="evenodd" class="s3" d="m360.96 763.03v15.31h-15.31v-15.31z"/>
					<path id="&lt;Path&gt;" fill-rule="evenodd" class="s3" d="m376.27 747.72v15.31h-15.31v-15.31z"/>
					<path id="&lt;Path&gt;" fill-rule="evenodd" class="s3" d="m559.99 900.82v30.62h-15.31v-30.62z"/>
					<path id="&lt;Path&gt;" fill-rule="evenodd" class="s3" d="m575.3 870.2v30.62h-15.31v-30.62z"/>
					<path id="&lt;Path&gt;" fill-rule="evenodd" class="s3" d="m590.61 900.82v30.62h-15.31v-30.62z"/>
					<path id="&lt;Path&gt;" fill-rule="evenodd" class="s3" d="m605.92 900.82v15.31h-15.31v-15.31z"/>
					<path id="&lt;Path&gt;" fill-rule="evenodd" class="s3" d="m605.92 885.51v15.31h-15.31v-15.31z"/>
					<path id="&lt;Path&gt;" fill-rule="evenodd" class="s3" d="m621.23 900.82v30.62h-15.31v-30.62z"/>
					<path id="&lt;Path&gt;" fill-rule="evenodd" class="s3" d="m636.54 885.51v30.62h-15.31v-30.62z"/>
					<path id="&lt;Path&gt;" fill-rule="evenodd" class="s3" d="m590.61 870.2v15.31h-15.31v-15.31z"/>
					<path id="&lt;Path&gt;" fill-rule="evenodd" class="s3" d="m667.16 900.82v15.31h-15.31v-15.31z"/>
					<path id="&lt;Path&gt;" fill-rule="evenodd" class="s3" d="m651.85 885.51v15.31h-15.31v-15.31z"/>
					<path id="&lt;Path&gt;" fill-rule="evenodd" class="s3" d="m667.16 885.51v15.31h-15.31v-15.31z"/>
					<path id="&lt;Path&gt;" fill-rule="evenodd" class="s3" d="m651.85 900.82v15.31h-15.31v-15.31z"/>
					<path id="&lt;Path&gt;" fill-rule="evenodd" class="s3" d="m651.85 870.2v15.31h-15.31v-15.31z"/>
					<path id="&lt;Path&gt;" fill-rule="evenodd" class="s3" d="m682.47 870.2v15.31h-15.31v-15.31z"/>
					<path id="&lt;Path&gt;" fill-rule="evenodd" class="s3" d="m697.78 885.51v15.31h-15.31v-15.31z"/>
					<path id="&lt;Path&gt;" fill-rule="evenodd" class="s3" d="m713.09 870.2v15.31h-15.31v-15.31z"/>
					<path id="&lt;Path&gt;" fill-rule="evenodd" class="s3" d="m697.78 854.89v15.31h-15.31v-15.31z"/>
					<path id="&lt;Path&gt;" fill-rule="evenodd" class="s3" d="m713.09 839.58v15.31h-15.31v-15.31z"/>
					<path id="&lt;Path&gt;" fill-rule="evenodd" class="s3" d="m743.71 793.65v15.31h-15.31v-15.31z"/>
					<path id="&lt;Path&gt;" fill-rule="evenodd" class="s3" d="m682.47 824.27v15.31h-15.31v-15.31z"/>
					<path id="&lt;Path&gt;" fill-rule="evenodd" class="s3" d="m667.16 839.58v15.31h-15.31v-15.31z"/>
					<path id="&lt;Path&gt;" fill-rule="evenodd" class="s3" d="m636.54 854.89v15.31h-15.31v-15.31z"/>
					<path id="&lt;Path&gt;" fill-rule="evenodd" class="s3" d="m621.23 839.58v15.31h-15.31v-15.31z"/>
					<path id="&lt;Path&gt;" fill-rule="evenodd" class="s3" d="m605.92 854.89v15.31h-15.31v-15.31z"/>
					<path id="&lt;Path&gt;" fill-rule="evenodd" class="s3" d="m621.23 870.2v15.31h-15.31v-15.31z"/>
					<path id="&lt;Path&gt;" fill-rule="evenodd" class="s3" d="m575.3 778.34v15.31h-15.31v-15.31z"/>
					<path id="&lt;Path&gt;" fill-rule="evenodd" class="s3" d="m529.37 793.65v15.31h-15.31v-15.31z"/>
					<path id="&lt;Path&gt;" fill-rule="evenodd" class="s3" d="m559.99 793.65v15.31h-15.31v-15.31z"/>
					<path id="&lt;Path&gt;" fill-rule="evenodd" class="s3" d="m590.61 763.03v15.31h-45.93v-15.31z"/>
					<path id="&lt;Path&gt;" fill-rule="evenodd" class="s3" d="m621.23 763.03v15.31h-15.31v-15.31z"/>
					<path id="&lt;Path&gt;" fill-rule="evenodd" class="s3" d="m651.85 778.34v15.31h-15.31v-15.31z"/>
					<path id="&lt;Path&gt;" fill-rule="evenodd" class="s3" d="m636.54 793.65v15.31h-15.31v-15.31z"/>
					<path id="&lt;Path&gt;" fill-rule="evenodd" class="s3" d="m605.92 793.65v15.31h-15.31v-15.31z"/>
					<path id="&lt;Path&gt;" fill-rule="evenodd" class="s3" d="m697.78 793.65v15.31h-45.93v-15.31z"/>
					<path id="&lt;Path&gt;" fill-rule="evenodd" class="s3" d="m621.23 778.34v15.31h-30.62v-15.31z"/>
					<path id="&lt;Path&gt;" fill-rule="evenodd" class="s3" d="m651.85 671.17v15.31h-30.62v-15.31z"/>
					<path id="&lt;Path&gt;" fill-rule="evenodd" class="s3" d="m636.54 686.48v15.31h-15.31v-15.31z"/>
					<path id="&lt;Path&gt;" fill-rule="evenodd" class="s3" d="m667.16 686.48v15.31h-15.31v-15.31z"/>
					<path id="&lt;Path&gt;" fill-rule="evenodd" class="s3" d="m651.85 701.79v15.31h-15.31v-15.31z"/>
					<path id="&lt;Path&gt;" fill-rule="evenodd" class="s3" d="m682.47 701.79v15.31h-15.31v-15.31z"/>
					<path id="&lt;Path&gt;" fill-rule="evenodd" class="s3" d="m682.47 717.1v15.31h-15.31v-15.31z"/>
					<path id="&lt;Path&gt;" fill-rule="evenodd" class="s3" d="m667.16 701.79v15.31h-15.31v-15.31z"/>
					<path id="&lt;Path&gt;" fill-rule="evenodd" class="s3" d="m682.47 671.17v15.31h-15.31v-15.31z"/>
					<path id="&lt;Path&gt;" fill-rule="evenodd" class="s3" d="m697.78 686.48v15.31h-15.31v-15.31z"/>
					<path id="&lt;Path&gt;" fill-rule="evenodd" class="s3" d="m713.09 701.79v15.31h-15.31v-15.31z"/>
					<path id="&lt;Path&gt;" fill-rule="evenodd" class="s3" d="m728.4 686.48v15.31h-15.31v-15.31z"/>
					<path id="&lt;Path&gt;" fill-rule="evenodd" class="s3" d="m759.02 686.48v30.62h-15.31v-30.62z"/>
					<path id="&lt;Path&gt;" fill-rule="evenodd" class="s3" d="m728.4 655.86v15.31h-15.31v-15.31z"/>
					<path id="&lt;Path&gt;" fill-rule="evenodd" class="s3" d="m697.78 655.86v15.31h-15.31v-15.31z"/>
					<path id="&lt;Path&gt;" fill-rule="evenodd" class="s3" d="m682.47 640.55v15.31h-15.31v-15.31z"/>
					<path id="&lt;Path&gt;" fill-rule="evenodd" class="s3" d="m667.16 609.93v15.31h-15.31v-15.31z"/>
					<path id="&lt;Path&gt;" fill-rule="evenodd" class="s3" d="m651.85 625.24v15.31h-15.31v-15.31z"/>
					<path id="&lt;Path&gt;" fill-rule="evenodd" class="s3" d="m697.78 717.1v15.31h-15.31v-15.31z"/>
					<path id="&lt;Path&gt;" fill-rule="evenodd" class="s3" d="m667.16 655.86v15.31h-15.31v-15.31z"/>
					<path id="&lt;Path&gt;" fill-rule="evenodd" class="s3" d="m651.85 640.55v15.31h-15.31v-15.31z"/>
				</g>
				<g id="&lt;Group&gt;">
					<path id="&lt;Path&gt;" fill-rule="evenodd" class="s1" d="m406.89 410.9v15.31h-30.62v-15.31z"/>
					<path id="&lt;Path&gt;" fill-rule="evenodd" class="s1" d="m437.51 395.59v15.31h-30.62v-15.31z"/>
					<path id="&lt;Path&gt;" fill-rule="evenodd" class="s1" d="m452.82 349.66v45.93h-15.31v-45.93z"/>
					<path id="&lt;Path&gt;" fill-rule="evenodd" class="s1" d="m468.13 288.42v61.24h-15.31v-61.24z"/>
					<path id="&lt;Path&gt;" fill-rule="evenodd" class="s1" d="m559.99 288.42v61.24h-15.31v-61.24z"/>
					<path id="&lt;Path&gt;" fill-rule="evenodd" class="s1" d="m575.3 257.8v30.62h-15.31v-30.62z"/>
					<path id="&lt;Path&gt;" fill-rule="evenodd" class="s1" d="m559.99 242.49v15.31h-15.31v-15.31z"/>
					<path id="&lt;Path&gt;" fill-rule="evenodd" class="s1" d="m452.82 273.11v15.31h-15.31v-15.31z"/>
					<path id="&lt;Path&gt;" fill-rule="evenodd" class="s7" d="m544.68 257.8v15.31h-30.62v-15.31z"/>
					<path id="&lt;Path&gt;" fill-rule="evenodd" class="s1" d="m514.06 242.49v15.31h-45.93v-15.31z"/>
					<path id="&lt;Path&gt;" fill-rule="evenodd" class="s5" d="m544.68 242.49v15.31h-30.62v-15.31z"/>
					<path id="&lt;Path&gt;" fill-rule="evenodd" class="s1" d="m544.68 227.18v15.31h-30.62v-15.31z"/>
					<path id="&lt;Path&gt;" fill-rule="evenodd" class="s1" d="m468.13 257.8v15.31h-15.31v-15.31z"/>
					<path id="&lt;Path&gt;" fill-rule="evenodd" class="s6" d="m498.75 273.11v15.31h-45.93v-15.31z"/>
					<path id="&lt;Path&gt;" fill-rule="evenodd" class="s5" d="m514.06 257.8v15.31h-45.93v-15.31z"/>
					<path id="&lt;Path&gt;" fill-rule="evenodd" class="s7" d="m514.06 273.11v15.31h-15.31v-15.31z"/>
					<path id="&lt;Path&gt;" fill-rule="evenodd" class="s1" d="m376.27 426.21v15.31h-15.31v-15.31z"/>
					<path id="&lt;Path&gt;" fill-rule="evenodd" class="s1" d="m575.3 441.52v15.31h-15.31v-15.31z"/>
					<path id="&lt;Path&gt;" fill-rule="evenodd" class="s1" d="m590.61 441.52v15.31h-15.31v-15.31z"/>
					<path id="&lt;Path&gt;" fill-rule="evenodd" class="s1" d="m514.06 441.52v15.31h-30.62v-15.31z"/>
					<path id="&lt;Path&gt;" fill-rule="evenodd" class="s1" d="m483.44 426.21v15.31h-61.24v-15.31z"/>
					<path id="&lt;Path&gt;" fill-rule="evenodd" class="s1" d="m559.99 426.21v15.31h-15.31v-15.31z"/>
					<path id="&lt;Path&gt;" fill-rule="evenodd" class="s1" d="m559.99 395.59v15.31h-15.31v-15.31z"/>
					<path id="&lt;Path&gt;" fill-rule="evenodd" class="s1" d="m605.92 426.21v15.31h-15.31v-15.31z"/>
					<path id="&lt;Path&gt;" fill-rule="evenodd" class="s1" d="m590.61 410.9v15.31h-30.62v-15.31z"/>
					<path id="&lt;Path&gt;" fill-rule="evenodd" class="s1" d="m544.68 349.66v45.93h-15.31v-45.93z"/>
					<path id="&lt;Path&gt;" fill-rule="evenodd" class="s1" d="m559.99 456.83v15.31h-45.93v-15.31z"/>
					<path id="&lt;Path&gt;" fill-rule="evenodd" class="s1" d="m422.2 441.52v15.31h-45.93v-15.31z"/>
					<path id="&lt;Path&gt;" fill-rule="evenodd" class="s1" d="m498.75 135.32v122.48h-15.31v-122.48z"/>
					<path id="&lt;Path&gt;" fill-rule="evenodd" class="s1" d="m514.06 181.25v15.31h-15.31v-15.31z"/>
					<path id="&lt;Path&gt;" fill-rule="evenodd" class="s1" d="m468.13 165.94v15.31h-15.31v-15.31z"/>
					<path id="&lt;Path&gt;" fill-rule="evenodd" class="s1" d="m529.37 165.94v15.31h-15.31v-15.31z"/>
					<path id="&lt;Path&gt;" fill-rule="evenodd" class="s1" d="m483.44 181.25v15.31h-15.31v-15.31z"/>
					<path id="&lt;Path&gt;" fill-rule="evenodd" class="s1" d="m544.68 135.32v30.62h-15.31v-30.62z"/>
					<path id="&lt;Path&gt;" fill-rule="evenodd" class="s1" d="m452.82 135.32v30.62h-15.31v-30.62z"/>
					<path id="&lt;Path&gt;" fill-rule="evenodd" class="s1" d="m529.37 104.7v30.62h-15.31v-30.62z"/>
					<path id="&lt;Path&gt;" fill-rule="evenodd" class="s1" d="m468.13 104.7v30.62h-15.31v-30.62z"/>
					<path id="&lt;Path&gt;" fill-rule="evenodd" class="s1" d="m514.06 74.08v30.62h-15.31v-30.62z"/>
					<path id="&lt;Path&gt;" fill-rule="evenodd" class="s1" d="m483.44 74.08v30.62h-15.31v-30.62z"/>
					<path id="&lt;Path&gt;" class="s5" d="m529.37 135.32v30.62h-15.31v15.31h-15.31v-45.93h-15.31v45.93h-15.31v-15.31h-15.31v-30.62h15.31v-30.62h15.31v-30.62h15.31v30.62h15.31v30.62z"/>
					<path id="&lt;Path&gt;" fill-rule="evenodd" class="s1" d="m498.75 43.46v30.62h-15.31v-30.62z"/>
					<path id="&lt;Path&gt;" class="s2" d="m529.37 349.66v45.93h15.31v15.31h15.31v15.31h-15.31v15.31h15.31v15.31h-45.93v-137.79h-15.31v122.48h-15.31v-15.31h-61.24v15.31h-45.93v-15.31h30.62v-15.31h30.62v-15.31h15.31v-45.93h15.31v-61.24h45.93v-15.31h30.62v-15.31h15.31v30.62h-15.31v61.24z"/>
					<path id="&lt;Path&gt;" fill-rule="evenodd" class="s5" d="m514.06 319.04v122.48h-15.31v-122.48z"/>
					<path id="&lt;Path&gt;" fill-rule="evenodd" class="s2" d="m498.75 135.32v61.24h-15.31v-61.24z"/>
					<path id="&lt;Path&gt;" fill-rule="evenodd" class="s7" d="m514.06 104.7v15.31h-15.31v-15.31z"/>
					<path id="&lt;Path&gt;" fill-rule="evenodd" class="s7" d="m529.37 135.32v15.31h-15.31v-15.31z"/>
					<path id="&lt;Path&gt;" fill-rule="evenodd" class="s7" d="m514.06 165.94v15.31h-15.31v-15.31z"/>
					<path id="&lt;Path&gt;" fill-rule="evenodd" class="s7" d="m483.44 104.7v15.31h-15.31v-15.31z"/>
					<path id="&lt;Path&gt;" fill-rule="evenodd" class="s7" d="m559.99 273.11v15.31h-15.31v-15.31z"/>
				</g>
				<g id="&lt;Group&gt;">
					<path id="&lt;Path&gt;" fill-rule="evenodd" class="s6" d="m422.2 181.25v15.31h-15.31v-15.31z"/>
					<path id="&lt;Path&gt;" fill-rule="evenodd" class="s6" d="m422.2 211.87v15.31h-15.31v-15.31z"/>
					<path id="&lt;Path&gt;" fill-rule="evenodd" class="s6" d="m406.89 196.56v15.31h-15.31v-15.31z"/>
					<path id="&lt;Path&gt;" fill-rule="evenodd" class="s6" d="m437.51 196.56v15.31h-15.31v-15.31z"/>
				</g>
				<g id="&lt;Group&gt;">
					<path id="&lt;Path&gt;" fill-rule="evenodd" class="s6" d="m559.99 43.46v15.31h-15.31v-15.31z"/>
					<path id="&lt;Path&gt;" fill-rule="evenodd" class="s6" d="m559.99 74.08v15.31h-15.31v-15.31z"/>
					<path id="&lt;Path&gt;" fill-rule="evenodd" class="s6" d="m544.68 58.77v15.31h-15.31v-15.31z"/>
					<path id="&lt;Path&gt;" fill-rule="evenodd" class="s6" d="m575.3 58.77v15.31h-15.31v-15.31z"/>
				</g>
				<g id="&lt;Group&gt;">
					<path id="&lt;Path&gt;" fill-rule="evenodd" class="s1" d="m483.44 962.06v15.31h-15.31v-15.31z"/>
					<path id="&lt;Path&gt;" fill-rule="evenodd" class="s1" d="m468.13 946.75v15.31h-15.31v-15.31z"/>
					<path id="&lt;Path&gt;" fill-rule="evenodd" class="s1" d="m498.75 977.37v15.31h-15.31v-15.31z"/>
					<path id="&lt;Path&gt;" fill-rule="evenodd" class="s1" d="m544.68 946.75v15.31h-15.31v-15.31z"/>
					<path id="&lt;Path&gt;" fill-rule="evenodd" class="s1" d="m559.99 931.44v15.31h-15.31v-15.31z"/>
					<path id="&lt;Path&gt;" fill-rule="evenodd" class="s1" d="m575.3 900.82v30.62h-15.31v-30.62z"/>
					<path id="&lt;Path&gt;" fill-rule="evenodd" class="s1" d="m590.61 885.51v15.31h-15.31v-15.31z"/>
					<path id="&lt;Path&gt;" fill-rule="evenodd" class="s1" d="m605.92 870.2v15.31h-15.31v-15.31z"/>
					<path id="&lt;Path&gt;" fill-rule="evenodd" class="s1" d="m636.54 854.89v15.31h-30.62v-15.31z"/>
					<path id="&lt;Path&gt;" fill-rule="evenodd" class="s1" d="m483.44 916.13v30.62h-15.31v-30.62z"/>
					<path id="&lt;Path&gt;" fill-rule="evenodd" class="s1" d="m498.75 900.82v15.31h-15.31v-15.31z"/>
					<path id="&lt;Path&gt;" fill-rule="evenodd" class="s1" d="m514.06 885.51v15.31h-15.31v-15.31z"/>
					<path id="&lt;Path&gt;" fill-rule="evenodd" class="s1" d="m544.68 870.2v15.31h-30.62v-15.31z"/>
					<path id="&lt;Path&gt;" fill-rule="evenodd" class="s1" d="m559.99 854.89v15.31h-15.31v-15.31z"/>
					<path id="&lt;Path&gt;" fill-rule="evenodd" class="s1" d="m575.3 839.58v15.31h-15.31v-15.31z"/>
					<path id="&lt;Path&gt;" fill-rule="evenodd" class="s1" d="m590.61 808.96v30.62h-15.31v-30.62z"/>
					<path id="&lt;Path&gt;" fill-rule="evenodd" class="s1" d="m605.92 793.65v15.31h-15.31v-15.31z"/>
					<path id="&lt;Path&gt;" fill-rule="evenodd" class="s1" d="m621.23 808.96v15.31h-15.31v-15.31z"/>
					<path id="&lt;Path&gt;" fill-rule="evenodd" class="s1" d="m636.54 778.34v30.62h-15.31v-30.62z"/>
					<path id="&lt;Path&gt;" fill-rule="evenodd" class="s1" d="m667.16 763.03v15.31h-30.62v-15.31z"/>
					<path id="&lt;Path&gt;" fill-rule="evenodd" class="s1" d="m651.85 824.27v15.31h-15.31v-15.31z"/>
					<path id="&lt;Path&gt;" fill-rule="evenodd" class="s1" d="m667.16 793.65v30.62h-15.31v-30.62z"/>
					<path id="&lt;Path&gt;" fill-rule="evenodd" class="s1" d="m713.09 747.72v30.62h-15.31v-30.62z"/>
					<path id="&lt;Path&gt;" fill-rule="evenodd" class="s1" d="m759.02 701.79v30.62h-15.31v-30.62z"/>
					<path id="&lt;Path&gt;" fill-rule="evenodd" class="s6" d="m789.64 671.17v15.31h-30.62v-15.31z"/>
					<path id="&lt;Path&gt;" fill-rule="evenodd" class="s1" d="m789.64 655.86v15.31h-30.62v-15.31z"/>
					<path id="&lt;Path&gt;" fill-rule="evenodd" class="s1" d="m728.4 686.48v30.62h-15.31v-30.62z"/>
					<path id="&lt;Path&gt;" fill-rule="evenodd" class="s1" d="m682.47 732.41v30.62h-15.31v-30.62z"/>
					<path id="&lt;Path&gt;" fill-rule="evenodd" class="s1" d="m697.78 778.34v15.31h-30.62v-15.31z"/>
					<path id="&lt;Path&gt;" fill-rule="evenodd" class="s1" d="m713.09 717.1v15.31h-30.62v-15.31z"/>
					<path id="&lt;Path&gt;" class="s6" d="m713.09 732.41v15.31h-15.31v30.62h-30.62v-15.31h15.31v-30.62z"/>
					<path id="&lt;Path&gt;" fill-rule="evenodd" class="s1" d="m743.71 732.41v15.31h-30.62v-15.31z"/>
					<path id="&lt;Path&gt;" fill-rule="evenodd" class="s1" d="m804.95 640.55v15.31h-15.31v-15.31z"/>
					<path id="&lt;Path&gt;" fill-rule="evenodd" class="s1" d="m820.26 625.24v15.31h-15.31v-15.31z"/>
					<path id="&lt;Path&gt;" fill-rule="evenodd" class="s1" d="m835.57 609.93v15.31h-15.31v-15.31z"/>
					<path id="&lt;Path&gt;" fill-rule="evenodd" class="s1" d="m942.74 518.07v15.31h-15.31v-15.31z"/>
					<path id="&lt;Path&gt;" fill-rule="evenodd" class="s1" d="m804.95 671.17v15.31h-15.31v-15.31z"/>
					<path id="&lt;Path&gt;" fill-rule="evenodd" class="s6" d="m804.95 655.86v15.31h-15.31v-15.31z"/>
					<path id="&lt;Path&gt;" fill-rule="evenodd" class="s1" d="m820.26 655.86v15.31h-15.31v-15.31z"/>
					<path id="&lt;Path&gt;" fill-rule="evenodd" class="s6" d="m820.26 640.55v15.31h-15.31v-15.31z"/>
					<path id="&lt;Path&gt;" fill-rule="evenodd" class="s1" d="m835.57 640.55v15.31h-15.31v-15.31z"/>
					<path id="&lt;Path&gt;" fill-rule="evenodd" class="s6" d="m835.57 625.24v15.31h-15.31v-15.31z"/>
					<path id="&lt;Path&gt;" fill-rule="evenodd" class="s1" d="m850.88 625.24v15.31h-15.31v-15.31z"/>
					<path id="&lt;Path&gt;" fill-rule="evenodd" class="s1" d="m850.88 594.62v15.31h-15.31v-15.31z"/>
					<path id="&lt;Path&gt;" fill-rule="evenodd" class="s6" d="m850.88 609.93v15.31h-15.31v-15.31z"/>
					<path id="&lt;Path&gt;" fill-rule="evenodd" class="s1" d="m866.19 609.93v15.31h-15.31v-15.31z"/>
					<path id="&lt;Path&gt;" fill-rule="evenodd" class="s1" d="m866.19 579.31v15.31h-15.31v-15.31z"/>
					<path id="&lt;Path&gt;" fill-rule="evenodd" class="s6" d="m866.19 594.62v15.31h-15.31v-15.31z"/>
					<path id="&lt;Path&gt;" fill-rule="evenodd" class="s1" d="m881.5 594.62v15.31h-15.31v-15.31z"/>
					<path id="&lt;Path&gt;" fill-rule="evenodd" class="s1" d="m881.5 564v15.31h-15.31v-15.31z"/>
					<path id="&lt;Path&gt;" fill-rule="evenodd" class="s6" d="m881.5 579.31v15.31h-15.31v-15.31z"/>
					<path id="&lt;Path&gt;" fill-rule="evenodd" class="s1" d="m896.81 579.31v15.31h-15.31v-15.31z"/>
					<path id="&lt;Path&gt;" fill-rule="evenodd" class="s1" d="m896.81 548.69v15.31h-15.31v-15.31z"/>
					<path id="&lt;Path&gt;" fill-rule="evenodd" class="s6" d="m896.81 564v15.31h-15.31v-15.31z"/>
					<path id="&lt;Path&gt;" fill-rule="evenodd" class="s1" d="m912.12 564v15.31h-15.31v-15.31z"/>
					<path id="&lt;Path&gt;" fill-rule="evenodd" class="s1" d="m912.12 533.38v15.31h-15.31v-15.31z"/>
					<path id="&lt;Path&gt;" fill-rule="evenodd" class="s6" d="m912.12 548.69v15.31h-15.31v-15.31z"/>
					<path id="&lt;Path&gt;" fill-rule="evenodd" class="s1" d="m927.43 548.69v15.31h-15.31v-15.31z"/>
					<path id="&lt;Path&gt;" fill-rule="evenodd" class="s1" d="m927.43 518.07v15.31h-15.31v-15.31z"/>
					<path id="&lt;Path&gt;" fill-rule="evenodd" class="s6" d="m927.43 533.38v15.31h-15.31v-15.31z"/>
					<path id="&lt;Path&gt;" fill-rule="evenodd" class="s1" d="m942.74 533.38v15.31h-15.31v-15.31z"/>
					<path id="&lt;Path&gt;" fill-rule="evenodd" class="s1" d="m789.64 686.48v15.31h-30.62v-15.31z"/>
					<path id="&lt;Path&gt;" class="s6" d="m759.02 686.48v15.31h-15.31v30.62h-30.62v-15.31h15.31v-30.62z"/>
					<path id="&lt;Path&gt;" fill-rule="evenodd" class="s1" d="m759.02 671.17v15.31h-30.62v-15.31z"/>
					<path id="&lt;Path&gt;" class="s6" d="m667.16 778.34v15.31h-15.31v30.62h-30.62v-15.31h15.31v-30.62z"/>
					<path id="&lt;Path&gt;" fill-rule="evenodd" class="s1" d="m636.54 824.27v15.31h-15.31v-15.31z"/>
					<path id="&lt;Path&gt;" fill-rule="evenodd" class="s1" d="m651.85 839.58v15.31h-15.31v-15.31z"/>
					<path id="&lt;Path&gt;" class="s6" d="m636.54 839.58v15.31h-30.62v15.31h-15.31v15.31h-15.31v15.31h-15.31v30.62h-15.31v15.31h-15.31v15.31h-30.62v15.31h-15.31v-15.31h-15.31v-15.31h15.31v-30.62h15.31v-15.31h15.31v-15.31h30.62v-15.31h15.31v-15.31h15.31v-15.31h15.31v-30.62h15.31v15.31h15.31v15.31z"/>
					<path id="&lt;Path&gt;" fill-rule="evenodd" class="s1" d="m529.37 962.06v15.31h-30.62v-15.31z"/>
					<path id="&lt;Path&gt;" fill-rule="evenodd" class="s5" d="m605.92 808.96v30.62h-15.31v-30.62z"/>
					<path id="&lt;Path&gt;" fill-rule="evenodd" class="s5" d="m621.23 824.27v15.31h-15.31v-15.31z"/>
					<path id="&lt;Path&gt;" fill-rule="evenodd" class="s5" d="m590.61 839.58v15.31h-15.31v-15.31z"/>
					<path id="&lt;Path&gt;" fill-rule="evenodd" class="s5" d="m651.85 778.34v15.31h-15.31v-15.31z"/>
					<path id="&lt;Path&gt;" fill-rule="evenodd" class="s5" d="m636.54 808.96v15.31h-15.31v-15.31z"/>
					<path id="&lt;Path&gt;" fill-rule="evenodd" class="s5" d="m697.78 732.41v15.31h-15.31v-15.31z"/>
					<path id="&lt;Path&gt;" fill-rule="evenodd" class="s5" d="m743.71 686.48v15.31h-15.31v-15.31z"/>
					<path id="&lt;Path&gt;" fill-rule="evenodd" class="s5" d="m774.33 671.17v15.31h-15.31v-15.31z"/>
					<path id="&lt;Path&gt;" fill-rule="evenodd" class="s5" d="m850.88 609.93v15.31h-15.31v-15.31z"/>
					<path id="&lt;Path&gt;" fill-rule="evenodd" class="s5" d="m575.3 854.89v15.31h-15.31v-15.31z"/>
					<path id="&lt;Path&gt;" fill-rule="evenodd" class="s5" d="m559.99 870.2v15.31h-15.31v-15.31z"/>
					<path id="&lt;Path&gt;" fill-rule="evenodd" class="s5" d="m529.37 885.51v15.31h-15.31v-15.31z"/>
					<path id="&lt;Path&gt;" fill-rule="evenodd" class="s5" d="m514.06 900.82v15.31h-15.31v-15.31z"/>
					<path id="&lt;Path&gt;" fill-rule="evenodd" class="s5" d="m483.44 946.75v15.31h-15.31v-15.31z"/>
				</g>
			</g>
		</g>
	</g>
</svg>